<svg xmlns="http://www.w3.org/2000/svg" viewBox="0 0 522.53 707.2"><path d="M231.35,649.68H596.49a37.77,37.77,0,0,1,37.78,37.77v1a37.77,37.77,0,0,1-37.78,37.77h-447a37.77,37.77,0,0,1-37.77-37.77v-3.19a37.76,37.76,0,0,1,8.66-24.07L337.82,398.29a37.77,37.77,0,0,0,.54-47.47L133.5,91.27a37.76,37.76,0,0,1-8.12-23.4v-11a37.77,37.77,0,0,1,37.77-37.77H562.92a37.77,37.77,0,0,1,37.77,37.77h0a37.77,37.77,0,0,1-37.77,37.77h-320v4.2L440,347.64a37.77,37.77,0,0,1-.52,47.55L231.35,646.53Z" transform="translate(-111.74 -19.08)" fill="#ffffff"/><rect x="378.36" y="106.78" width="76.45" height="514.67" rx="38.23" transform="translate(393.16 891.23) rotate(-140.34)" fill="#ffffff"/></svg>
