<svg xmlns="http://www.w3.org/2000/svg" viewBox="0 0 1024 1024"><rect width="1024" height="1024" style="fill:#027cff"/><path d="M371.08,789.4H736.22A37.78,37.78,0,0,1,774,827.18v1.05A37.77,37.77,0,0,1,736.22,866h-447a37.77,37.77,0,0,1-37.78-37.77V825A37.79,37.79,0,0,1,260.13,801L477.54,538a37.78,37.78,0,0,0,.54-47.48L273.23,231a37.79,37.79,0,0,1-8.13-23.4v-11a37.78,37.78,0,0,1,37.78-37.77H702.64a37.78,37.78,0,0,1,37.78,37.77h0a37.78,37.78,0,0,1-37.78,37.78h-320v4.2L579.76,487.37a37.77,37.77,0,0,1-.51,47.55L371.08,786.26Z" style="fill:#fff"/><rect x="518.09" y="246.5" width="76.45" height="514.67" rx="38.23" transform="translate(663.01 1246.78) rotate(-140.34)" style="fill:#fff"/></svg>